<svg width="63" height="63" viewBox="0 0 63 63" fill="none" xmlns="http://www.w3.org/2000/svg">
<circle cx="31.5" cy="31.5" r="31.5" fill="#FFB028"/>
<path fill-rule="evenodd" clip-rule="evenodd" d="M30.7287 19.5232C31.4178 19.5232 32.0248 19.6557 32.546 19.9247L32.5477 19.9256L32.5507 19.9271L32.5524 19.9279C32.9322 20.1125 33.2448 20.3729 33.4907 20.7063L33.634 20.9006L33.7358 20.6817C33.8349 20.469 33.9785 20.2893 34.1694 20.1458C34.473 19.9177 34.873 19.8098 35.3576 19.8098C35.8471 19.8098 36.243 19.9553 36.5296 20.2582L36.5352 20.2636C36.8367 20.5497 36.9827 20.9373 36.9827 21.4121C36.9827 21.5097 36.9638 21.666 36.9291 21.8743L36.9286 21.8775L36.2533 25.6499L36.2527 25.6537C36.1668 26.2227 36.1245 26.6753 36.1245 27.0135C36.1245 27.4851 36.2082 27.8193 36.3583 28.0337L36.3642 28.041C36.5253 28.242 36.7948 28.3552 37.204 28.3552C37.4341 28.3552 37.6823 28.2261 37.9489 27.9255L37.9528 27.9212C38.2276 27.6288 38.4634 27.1472 38.6517 26.4613L38.6524 26.4587L38.6529 26.457C38.8561 25.7774 38.9596 24.9046 38.9596 23.835C38.9596 21.6023 38.2828 19.9002 36.944 18.7117C35.6207 17.522 33.6852 16.9179 31.1188 16.9179C29.5066 16.9179 28.0695 17.2704 26.8057 17.9719C25.562 18.6547 24.5894 19.6712 23.8885 21.0241C23.1886 22.3583 22.8359 23.9711 22.8359 25.8672C22.8359 26.293 22.8576 26.7048 22.9009 27.1026C22.9446 27.5041 22.4916 27.8114 22.1529 27.5913L19.9065 26.1316C19.8033 26.0645 19.6944 25.9963 19.5802 25.9279C19.4403 25.8441 19.3518 25.694 19.3548 25.5309C19.3979 23.1922 19.8944 21.1735 20.849 19.4788C21.8652 17.6883 23.2605 16.3252 25.0318 15.394C26.8189 14.4637 28.8488 14 31.1188 14C33.4207 14 35.408 14.4198 37.0746 15.2631C38.7395 16.0885 40.0138 17.2409 40.893 18.7207C41.7719 20.2 42.2097 21.906 42.2097 23.835C42.2097 24.6074 42.1456 25.3318 42.0168 26.0078C41.9944 26.1253 41.9237 26.2276 41.8234 26.2927L34.8452 30.8272C34.6556 30.7499 34.4763 30.6582 34.3074 30.5518L34.302 30.5485C33.8199 30.2212 33.4707 29.8135 33.2561 29.3276L33.1602 29.1106L33.0128 29.2965C32.5944 29.8239 32.149 30.2515 31.6779 30.5759C31.1153 30.9576 30.3795 31.1429 29.4805 31.1429C28.1011 31.1429 27.0252 30.6986 26.2705 29.7985L26.2679 29.7954C25.5371 28.8841 25.1768 27.7014 25.1768 26.258C25.1768 24.9924 25.4138 23.8462 25.8899 22.8215C26.3657 21.7976 27.0197 20.9905 27.8531 20.4042L27.8547 20.4031C28.7067 19.8164 29.6659 19.5232 30.7287 19.5232ZM31.3528 22.3109C30.9481 22.3109 30.5818 22.406 30.2568 22.6062C29.9325 22.8059 29.6569 23.1055 29.4253 23.5034C28.9513 24.3174 28.7131 25.2432 28.7131 26.284C28.7131 26.9087 28.8475 27.4134 29.1079 27.8058L29.1098 27.8085C29.3635 28.1724 29.7245 28.3552 30.2086 28.3552C30.9042 28.3552 31.4726 28.1121 31.9188 27.62C32.0348 27.4921 32.1425 27.3474 32.242 27.1857C32.7492 26.3727 33.0044 25.4309 33.0044 24.3561C33.0044 23.6588 32.8513 23.1524 32.5645 22.8172C32.4929 22.7335 32.4142 22.6599 32.3282 22.5968C32.0707 22.4075 31.7478 22.3109 31.3528 22.3109Z" fill="white"/>
<path d="M14.5 43.3632L14.5 30.8823C14.5003 29.483 14.8561 28.6606 15.4327 28.3466C16.0092 28.0328 16.8911 28.1811 18.0633 28.9428L29.9988 36.6985C30.6053 37.094 31.3949 37.0939 32.0014 36.6984L43.9281 28.9484C45.2296 28.1026 46.1703 28.0121 46.7421 28.4693C47.1484 28.7942 47.4169 29.4268 47.4837 30.3988C47.4945 30.5558 47.5 30.721 47.5 30.8946V43.3632C47.5 45.8147 45.5944 47.8358 43.1466 48.0789C42.9835 48.0951 42.8179 48.1034 42.6503 48.1034H19.3497C17.0878 48.1034 15.19 46.5904 14.6525 44.5472C14.5593 44.1928 14.5069 43.8223 14.5007 43.4407C14.5002 43.4149 14.5 43.3891 14.5 43.3632Z" fill="white"/>
</svg>
