<svg width="36" height="38" viewBox="0 0 36 38" fill="none" xmlns="http://www.w3.org/2000/svg">
<path d="M17.0573 8.59123C17.3874 7.92231 18.3413 7.92231 18.6714 8.59123L20.5486 12.3949C20.6797 12.6606 20.9331 12.8447 21.2263 12.8873L25.4239 13.4972C26.1621 13.6045 26.4569 14.5117 25.9227 15.0324L22.8853 17.9931C22.6732 18.1999 22.5764 18.4978 22.6264 18.7897L23.3435 22.9704C23.4696 23.7056 22.6979 24.2663 22.0376 23.9192L18.2831 21.9453C18.021 21.8075 17.7077 21.8075 17.4455 21.9453L13.691 23.9192C13.0308 24.2663 12.2591 23.7056 12.3852 22.9704L13.1022 18.7897C13.1523 18.4978 13.0555 18.1999 12.8434 17.9931L9.80595 15.0324C9.27179 14.5117 9.56655 13.6045 10.3047 13.4972L14.5024 12.8873C14.7955 12.8447 15.0489 12.6606 15.18 12.3949L17.0573 8.59123Z" fill="white"/>
<path fill-rule="evenodd" clip-rule="evenodd" d="M20.6357 33.5982C21.1782 32.5898 22.1372 31.8887 23.2143 31.4998C29.2797 29.31 33.6152 23.502 33.6152 16.6814C33.6152 7.98291 26.5637 0.931396 17.8652 0.931396C9.16675 0.931396 2.11523 7.98291 2.11523 16.6814C2.11523 23.5039 6.45313 29.3132 12.5212 31.5016C13.5988 31.8902 14.5584 32.5914 15.1012 33.6001L16.5472 36.2872C17.1135 37.3395 18.6228 37.3394 19.189 36.287L20.6357 33.5982ZM30.1652 16.6814C30.1652 23.4745 24.6583 28.9814 17.8652 28.9814C11.0721 28.9814 5.56523 23.4745 5.56523 16.6814C5.56523 9.88829 11.0721 4.3814 17.8652 4.3814C24.6583 4.3814 30.1652 9.88829 30.1652 16.6814Z" fill="white"/>
</svg>
