<svg width="63" height="63" viewBox="0 0 63 63" fill="none" xmlns="http://www.w3.org/2000/svg">
<circle cx="31.5" cy="31.5" r="31.5" fill="#FFB028"/>
<path fill-rule="evenodd" clip-rule="evenodd" d="M31 17C25.201 17 20.5 21.701 20.5 27.5C20.5 32.9783 23.7467 40.368 29.9393 46.5607C30.5251 47.1464 31.4749 47.1464 32.0607 46.5607C38.2533 40.368 41.5 32.9783 41.5 27.5C41.5 21.701 36.799 17 31 17ZM31 32C33.4853 32 35.5 29.9853 35.5 27.5C35.5 25.0147 33.4853 23 31 23C28.5147 23 26.5 25.0147 26.5 27.5C26.5 29.9853 28.5147 32 31 32Z" fill="white"/>
</svg>
