<svg width="63" height="63" viewBox="0 0 63 63" fill="none" xmlns="http://www.w3.org/2000/svg">
<circle cx="31.5" cy="31.5" r="31.5" fill="#FFB028"/>
<path fill-rule="evenodd" clip-rule="evenodd" d="M19.7268 20.4349C19.2976 20.8646 18.904 21.3917 18.6495 21.8507C18.2575 22.5389 18.0258 23.28 17.8777 24.0529C16.711 29.9719 18.1927 35.2668 23.0837 40.1229C26.2928 43.3092 28.7262 44.6185 32.0581 45.0965C33.925 45.3643 35.8232 45.3872 37.7035 45.4943C38.5368 45.5418 39.4277 45.3644 40.2242 45.1311C41.1195 44.8148 41.9369 44.3018 42.6214 43.6165C45.1262 41.109 45.1262 37.0435 42.6214 34.536L42.3982 34.3229C39.9769 32.118 36.2742 32.0979 33.8302 34.2732L31.9919 36.0857C31.6526 36.4254 31.1183 36.4715 30.7259 36.1948C29.9097 35.6191 27.7411 33.4967 27.2118 32.7733C26.924 32.3801 26.9658 31.8355 27.3102 31.4908C27.8931 30.9198 28.4824 30.3547 29.0591 29.7774C31.6361 27.1975 31.6361 23.0148 29.0591 20.4349C26.4821 17.855 22.3039 17.855 19.7268 20.4349Z" fill="white"/>
</svg>
